<svg width="368" height="448" viewBox="0 0 368 448" fill="none" xmlns="http://www.w3.org/2000/svg">
<mask id="mask0_1607_836" style="mask-type:luminance" maskUnits="userSpaceOnUse" x="0" y="0" width="362" height="174">
<path d="M0.000244141 0.339844H361.516V173.282H0.000244141V0.339844Z" fill="white"/>
</mask>
<g mask="url(#mask0_1607_836)">
<path d="M357.365 169.875V120.975L214.904 24.7978L178.682 0.339844L142.479 24.7978L0.000244141 120.975V169.875L178.682 49.2394L357.365 169.875Z" fill="#274082"/>
</g>
<path d="M200.54 84.6735V241.873H156.824V84.6735L178.682 69.9136L200.54 84.6735Z" fill="#E8802B"/>
<path d="M95.3291 241.873H139.063V96.6646L95.3291 126.184V241.873Z" fill="#E8802B"/>
<path d="M218.321 96.6646V241.873H262.036V126.184L218.321 96.6646Z" fill="#E8802B"/>
<path d="M33.853 255.011C42.1737 246.935 54.1127 241.873 67.3559 241.873H77.5685V138.192L33.853 167.696V255.011Z" fill="#E8802B"/>
<path d="M279.816 138.192V241.873H290.029C303.254 241.873 315.193 246.935 323.532 255.011V167.696L279.816 138.192Z" fill="#E8802B"/>
<mask id="mask1_1607_836" style="mask-type:luminance" maskUnits="userSpaceOnUse" x="32" y="248" width="336" height="200">
<path d="M32.3645 248.77H368V447.661H32.3645V248.77Z" fill="white"/>
</mask>
<g mask="url(#mask1_1607_836)">
<path d="M323.531 283.221V282.483C323.531 265.987 308.525 252.603 290.028 252.603H67.355C48.8586 252.603 33.8521 265.987 33.8521 282.483V304.353C33.8521 320.849 48.8586 334.233 67.355 334.233H290.028C308.525 334.233 323.531 320.849 323.531 304.353V303.616C335.691 303.616 345.591 312.446 345.591 323.307V356.087C345.591 366.948 335.691 375.778 323.513 375.778H161.931C137.153 375.778 116.985 393.748 116.985 415.847V448.644H139.871V415.847C139.871 405.003 149.771 396.173 161.931 396.173H323.513C348.309 396.173 368.459 378.202 368.459 356.087V323.307C368.459 301.191 348.309 283.221 323.531 283.221ZM312.731 304.353C312.731 315.525 302.537 324.601 290.028 324.601H67.355C54.8465 324.601 44.6523 315.525 44.6523 304.353V294.721C44.6523 305.893 54.8465 314.968 67.355 314.968H290.028C302.537 314.968 312.731 305.893 312.731 294.721V304.353Z" fill="#274082"/>
</g>
</svg>
