<svg width="131" height="131" viewBox="0 0 131 131" fill="none" xmlns="http://www.w3.org/2000/svg">
<g clip-path="url(#clip0_671_17)">
<path d="M0 83.6508V106.887C0.101798 113.192 2.65644 119.21 7.1224 123.665C11.5884 128.12 17.6146 130.661 23.9237 130.751H46.7555C43.9548 119.407 38.127 109.035 29.8931 100.741C21.6593 92.4461 11.3279 86.5397 0 83.6508Z" fill="#8DD7F7"/>
<path d="M130.968 92.365V23.8878C130.978 20.7598 130.371 17.6606 129.182 14.7671C127.993 11.8737 126.245 9.24267 124.038 7.02441C121.831 4.80615 119.209 3.04409 116.321 1.83885C113.433 0.633623 110.335 0.00883736 107.205 0.000183105H58.1165C53.2328 9.17699 50.6957 19.4184 50.7312 29.8124C50.6418 39.622 52.8093 49.321 57.0664 58.1605C61.3235 66.9999 67.5562 74.7434 75.2834 80.793C83.0106 86.8426 92.0256 91.0366 101.632 93.051C111.239 95.0655 121.18 94.8466 130.689 92.4112L130.968 92.365Z" fill="#007DC5"/>
<path d="M130.689 107.004C119.235 109.219 107.433 108.879 96.1253 106.009C84.8179 103.138 74.284 97.8084 65.2759 90.3992C56.2678 82.99 49.0077 73.6845 44.014 63.147C39.0203 52.6096 36.4161 41.1001 36.3874 29.4406V29.1392C36.3426 19.1677 38.1968 9.27885 41.8511 0.000179945H23.9237C20.7941 -0.0119778 17.6928 0.592041 14.7968 1.77775C11.9008 2.96346 9.26686 4.70763 7.04533 6.91069C4.82381 9.11374 3.05822 11.7325 1.84938 14.6175C0.640537 17.5025 0.0121178 20.5973 0 23.725L0 69.2914C15.128 72.4166 29.0082 79.9033 39.9252 90.8264C50.8422 101.749 58.3175 115.63 61.4272 130.753H106.952C113.285 130.695 119.343 128.163 123.833 123.699C128.322 119.236 130.887 113.194 130.977 106.865L130.689 107.004Z" fill="#00ADEF"/>
</g>
<defs>
<clipPath id="clip0_671_17">
<rect width="130.977" height="130.753" fill="white"/>
</clipPath>
</defs>
</svg>
