<svg width="581" height="581" viewBox="0 0 581 581" fill="none" xmlns="http://www.w3.org/2000/svg">
<path d="M82 348.324V422.303C82.3241 442.377 90.4575 461.536 104.676 475.719C118.895 489.902 138.081 497.993 158.167 498.279H230.858C221.942 462.163 203.387 429.141 177.173 402.734C150.958 376.326 118.065 357.521 82 348.324Z" fill="#8DD7F7"/>
<path d="M498.973 376.068V158.053C499.003 148.094 497.07 138.227 493.284 129.015C489.498 119.803 483.934 111.426 476.908 104.364C469.883 97.3017 461.534 91.6917 452.338 87.8545C443.143 84.0173 433.281 82.0282 423.317 82.0006H267.029C251.481 111.217 243.403 143.824 243.516 176.916C243.232 208.147 250.133 239.026 263.686 267.169C277.24 295.312 297.083 319.965 321.685 339.226C346.286 358.486 374.988 371.839 405.573 378.252C436.159 384.666 467.81 383.969 498.082 376.215L498.973 376.068Z" fill="#007DC5"/>
<path d="M498.082 422.674C461.615 429.727 424.04 428.645 388.04 419.506C352.04 410.368 318.503 393.399 289.823 369.809C261.143 346.22 238.029 316.594 222.13 283.045C206.231 249.496 197.94 212.853 197.849 175.732V174.772C197.706 143.025 203.609 111.542 215.244 82.0006H158.167C148.204 81.9619 138.33 83.8849 129.11 87.6599C119.889 91.4349 111.503 96.988 104.431 104.002C97.3578 111.016 91.7366 119.354 87.888 128.539C84.0393 137.724 82.0386 147.577 82 157.535V302.607C130.164 312.557 174.355 336.393 209.112 371.17C243.869 405.946 267.669 450.139 277.569 498.286H422.51C442.672 498.101 461.961 490.041 476.255 475.83C490.548 461.618 498.712 442.382 499 422.233L498.082 422.674Z" fill="#00ADEF"/>
</svg>
