<svg width="615" height="580" viewBox="0 0 615 580" fill="none" xmlns="http://www.w3.org/2000/svg">
<path d="M524.656 497.984H387.941C383.527 497.984 379.964 494.677 379.964 490.618V364.38C379.964 361.401 381.914 358.7 384.893 357.571C387.871 356.425 391.31 357.063 393.597 359.175L424.513 387.739C428.289 382.321 430.381 375.855 430.381 369.095V211.331C430.381 192.343 413.646 176.907 393.082 176.907H185.564V370.224C185.564 381.813 187.461 392.977 190.988 403.518H313.946C318.361 403.518 321.924 406.825 321.924 410.884V490.618C321.924 494.693 318.343 497.984 313.946 497.984H307.991C250.075 497.984 200.366 464.968 179.767 418.251H135.271C105.897 418.251 82 396.185 82 369.078V211.331C82 184.208 105.897 162.158 135.271 162.158H169.858C173.385 117.406 213.964 82 263.317 82H438.926C490.602 82 532.633 120.827 532.633 168.526V370.208C532.633 401.865 520.242 431.771 497.586 455.195L530.293 485.396C532.58 487.507 533.254 490.683 532.03 493.433C530.79 496.183 527.883 497.984 524.656 497.984ZM395.936 483.235H505.386L480.834 460.564C479.345 459.189 478.494 457.307 478.494 455.359C478.494 453.395 479.345 451.529 480.834 450.153C503.951 428.808 516.679 400.425 516.679 370.224V168.526C516.679 128.946 481.809 96.7321 438.926 96.7321H263.317C222.774 96.7321 189.376 125.525 185.883 162.142H393.118C422.492 162.142 446.389 184.208 446.389 211.315V369.062C446.389 382.206 440.84 394.548 430.789 403.829C430.665 403.944 430.488 404.091 430.363 404.189C427.208 406.743 422.421 406.596 419.461 403.846L395.972 382.157V483.235H395.936ZM197.176 418.251C216.498 456.095 257.892 482.498 305.952 483.219V418.251H197.176ZM135.271 176.907C114.707 176.907 97.9725 192.359 97.9725 211.331V369.078C97.9725 388.066 114.707 403.502 135.271 403.502H174.36C171.258 392.879 169.592 381.731 169.592 370.208V176.907H135.271Z" fill="#42C1C7"/>
</svg>
