<svg width="451" height="416" viewBox="0 0 451 416" fill="none" xmlns="http://www.w3.org/2000/svg">
<g clip-path="url(#clip0_671_38)">
<path d="M442.656 415.984H305.941C301.527 415.984 297.964 412.677 297.964 408.618V282.38C297.964 279.401 299.914 276.7 302.893 275.571C305.871 274.425 309.31 275.063 311.597 277.175L342.513 305.739C346.289 300.321 348.381 293.855 348.381 287.095V129.331C348.381 110.343 331.646 94.9073 311.082 94.9073H103.564V288.224C103.564 299.813 105.461 310.977 108.988 321.518H231.946C236.361 321.518 239.924 324.825 239.924 328.884V408.618C239.924 412.693 236.343 415.984 231.946 415.984H225.991C168.075 415.984 118.366 382.968 97.767 336.251H53.2711C23.8967 336.251 0 314.185 0 287.078V129.331C0 102.208 23.8967 80.1584 53.2711 80.1584H87.8578C91.385 35.406 131.964 0 181.317 0H356.926C408.602 0 450.633 38.8271 450.633 86.526V288.208C450.633 319.865 438.242 349.771 415.586 373.195L448.293 403.396C450.58 405.507 451.254 408.683 450.03 411.433C448.79 414.183 445.883 415.984 442.656 415.984ZM313.936 401.235H423.386L398.834 378.564C397.345 377.189 396.494 375.307 396.494 373.359C396.494 371.395 397.345 369.529 398.834 368.153C421.951 346.808 434.679 318.425 434.679 288.224V86.526C434.679 46.9461 399.809 14.7321 356.926 14.7321H181.317C140.774 14.7321 107.376 43.525 103.883 80.1421H311.118C340.492 80.1421 364.389 102.208 364.389 129.315V287.062C364.389 300.206 358.84 312.548 348.789 321.829C348.665 321.944 348.488 322.091 348.363 322.189C345.208 324.743 340.421 324.596 337.461 321.846L313.972 300.157V401.235H313.936ZM115.176 336.251C134.498 374.095 175.892 400.498 223.952 401.219V336.251H115.176ZM53.2711 94.9073C32.7072 94.9073 15.9725 110.359 15.9725 129.331V287.078C15.9725 306.066 32.7072 321.502 53.2711 321.502H92.36C89.2582 310.879 87.5915 299.731 87.5915 288.208V94.9073H53.2711Z" fill="#42C1C7"/>
</g>
<defs>
<clipPath id="clip0_671_38">
<rect width="450.633" height="415.984" fill="white"/>
</clipPath>
</defs>
</svg>
