<svg width="1229" height="416" viewBox="0 0 1229 416" fill="none" xmlns="http://www.w3.org/2000/svg">
<g clip-path="url(#clip0_671_32)">
<path d="M442.656 415.984H305.941C301.527 415.984 297.964 412.677 297.964 408.618V282.38C297.964 279.401 299.914 276.7 302.893 275.571C305.871 274.425 309.31 275.063 311.597 277.175L342.513 305.739C346.289 300.321 348.381 293.855 348.381 287.095V129.331C348.381 110.343 331.646 94.9073 311.082 94.9073H103.564V288.224C103.564 299.813 105.461 310.977 108.988 321.518H231.946C236.361 321.518 239.924 324.825 239.924 328.884V408.618C239.924 412.693 236.343 415.984 231.946 415.984H225.991C168.075 415.984 118.366 382.968 97.767 336.251H53.2711C23.8967 336.251 0 314.185 0 287.078V129.331C0 102.208 23.8967 80.1584 53.2711 80.1584H87.8578C91.385 35.406 131.964 0 181.317 0H356.926C408.602 0 450.633 38.8271 450.633 86.526V288.208C450.633 319.865 438.242 349.771 415.586 373.195L448.293 403.396C450.58 405.507 451.254 408.683 450.03 411.433C448.79 414.183 445.883 415.984 442.656 415.984ZM313.936 401.235H423.386L398.834 378.564C397.345 377.189 396.494 375.307 396.494 373.359C396.494 371.395 397.345 369.529 398.834 368.153C421.951 346.808 434.679 318.425 434.679 288.224V86.526C434.679 46.9461 399.809 14.7321 356.926 14.7321H181.317C140.774 14.7321 107.376 43.525 103.883 80.1421H311.118C340.492 80.1421 364.389 102.208 364.389 129.315V287.062C364.389 300.206 358.84 312.548 348.789 321.829C348.665 321.944 348.488 322.091 348.363 322.189C345.208 324.743 340.421 324.596 337.461 321.846L313.972 300.157V401.235H313.936ZM115.176 336.251C134.498 374.095 175.892 400.498 223.952 401.219V336.251H115.176ZM53.2711 94.9073C32.7072 94.9073 15.9725 110.359 15.9725 129.331V287.078C15.9725 306.066 32.7072 321.502 53.2711 321.502H92.36C89.2582 310.879 87.5915 299.731 87.5915 288.208V94.9073H53.2711Z" fill="#42C1C7"/>
<path d="M951.84 282.823C963.208 298.558 982.702 305.214 999.901 304.612C1015.17 304.303 1031.39 297.354 1031.08 281.309C1031.08 264.369 1012.88 260.122 997.634 257.404H997.962C970.35 252.865 938.84 245.004 938.84 211.401C938.84 178.416 972.289 166.016 999.901 166.016C1017.44 166.016 1036.6 172.069 1050.57 184.778L1033.68 203.232C1023.29 193.24 1011.6 189.611 999.901 189.611C985.282 189.611 964.499 193.842 964.499 211.401C964.833 227.446 987.884 231.677 1002.49 234.102C1028.79 238.642 1056.41 249.528 1056.74 281.309C1056.74 312.472 1028.81 326.092 999.901 326.694C973.6 327.297 948.59 318.216 932.347 294.019L951.84 282.823Z" fill="#42C1C7"/>
<path d="M714.93 310.129L698.898 295.191C706.477 284.809 710.915 272.262 710.915 258.772V149.142C710.915 113.309 679.736 84.2455 641.259 84.2455H609.262C570.802 84.2455 539.607 113.293 539.607 149.142V258.756C539.607 294.589 570.784 323.652 609.262 323.652H641.259C655.755 323.652 669.204 319.519 680.347 312.456L696.379 327.395L714.93 310.129ZM641.259 299.227H609.262C585.316 299.227 565.841 281.082 565.841 258.772V149.142C565.841 126.832 585.316 108.688 609.262 108.688H641.259C665.204 108.688 684.676 126.832 684.676 149.142V258.756C684.676 265.461 682.901 271.791 679.771 277.372L655.528 254.786L636.98 272.067L661.222 294.654C655.232 297.551 648.455 299.227 641.259 299.227Z" fill="#42C1C7"/>
<path d="M832.791 326.726H810.102C778.824 326.726 753.356 303.017 753.356 273.856V219.651C753.356 190.506 778.804 166.781 810.102 166.781H832.791C864.069 166.781 889.536 190.49 889.536 219.651V258.982H779.589V273.873C779.589 289.543 793.285 302.301 810.102 302.301H832.791C843.551 302.301 853.329 297.159 858.921 288.567L881.343 301.227C870.951 317.19 852.803 326.726 832.791 326.726ZM779.589 234.541H863.304V219.651C863.304 203.98 849.608 191.222 832.791 191.222H810.102C793.285 191.222 779.589 203.98 779.589 219.651V234.541Z" fill="#42C1C7"/>
<path d="M1174.25 177.326H1125.8V125.823H1099.56V326.728H1125.8V201.752H1174.25C1189.97 201.752 1202.77 213.68 1202.77 228.325V326.37H1229V228.325C1228.99 200.206 1204.43 177.326 1174.25 177.326Z" fill="#42C1C7"/>
</g>
<defs>
<clipPath id="clip0_671_32">
<rect width="1229" height="416" fill="white"/>
</clipPath>
</defs>
</svg>
